<svg width="341" height="341" viewBox="0 0 341 341" fill="none" xmlns="http://www.w3.org/2000/svg">
<rect width="341" height="341" rx="50" fill="white"/>
<path d="M58.4 133.96V205H51.68V133.96H58.4ZM80.3375 133.96V205H73.6175V133.96H80.3375ZM118.499 205.768C113.571 205.768 109.123 204.68 105.155 202.504C101.251 200.264 98.147 197.128 95.843 193.096C93.603 189 92.483 184.232 92.483 178.792C92.483 173.352 93.635 168.616 95.939 164.584C98.243 160.488 101.379 157.352 105.347 155.176C109.315 152.936 113.763 151.816 118.691 151.816C123.619 151.816 128.067 152.936 132.035 155.176C136.067 157.352 139.203 160.488 141.443 164.584C143.747 168.616 144.899 173.352 144.899 178.792C144.899 184.168 143.747 188.904 141.443 193C139.139 197.096 135.971 200.264 131.939 202.504C127.907 204.68 123.427 205.768 118.499 205.768ZM118.499 199.912C121.955 199.912 125.155 199.144 128.099 197.608C131.043 196.008 133.411 193.64 135.203 190.504C137.059 187.304 137.987 183.4 137.987 178.792C137.987 174.184 137.091 170.312 135.299 167.176C133.507 163.976 131.139 161.608 128.195 160.072C125.251 158.472 122.051 157.672 118.595 157.672C115.139 157.672 111.939 158.472 108.995 160.072C106.051 161.608 103.683 163.976 101.891 167.176C100.163 170.312 99.299 174.184 99.299 178.792C99.299 183.4 100.163 187.304 101.891 190.504C103.683 193.64 106.019 196.008 108.899 197.608C111.843 199.144 115.043 199.912 118.499 199.912ZM154.077 178.792C154.077 173.352 155.165 168.616 157.341 164.584C159.517 160.488 162.525 157.352 166.365 155.176C170.205 152.936 174.589 151.816 179.517 151.816C185.981 151.816 191.293 153.416 195.453 156.616C199.677 159.816 202.397 164.168 203.613 169.672H196.413C195.517 165.896 193.565 162.952 190.557 160.84C187.613 158.664 183.933 157.576 179.517 157.576C175.997 157.576 172.829 158.376 170.013 159.976C167.197 161.576 164.957 163.976 163.293 167.176C161.693 170.312 160.893 174.184 160.893 178.792C160.893 183.4 161.693 187.304 163.293 190.504C164.957 193.704 167.197 196.104 170.013 197.704C172.829 199.304 175.997 200.104 179.517 200.104C183.933 200.104 187.613 199.048 190.557 196.936C193.565 194.76 195.517 191.752 196.413 187.912H203.613C202.397 193.288 199.677 197.608 195.453 200.872C191.229 204.136 185.917 205.768 179.517 205.768C174.589 205.768 170.205 204.68 166.365 202.504C162.525 200.264 159.517 197.128 157.341 193.096C155.165 189 154.077 184.232 154.077 178.792ZM212.952 178.696C212.952 173.32 214.008 168.616 216.12 164.584C218.296 160.488 221.272 157.352 225.048 155.176C228.888 152.936 233.208 151.816 238.008 151.816C243 151.816 247.288 152.968 250.872 155.272C254.52 157.576 257.144 160.52 258.744 164.104V152.584H265.464V205H258.744V193.384C257.08 196.968 254.424 199.944 250.776 202.312C247.192 204.616 242.904 205.768 237.912 205.768C233.176 205.768 228.888 204.648 225.048 202.408C221.272 200.168 218.296 197 216.12 192.904C214.008 188.808 212.952 184.072 212.952 178.696ZM258.744 178.792C258.744 174.568 257.88 170.856 256.152 167.656C254.424 164.456 252.056 161.992 249.048 160.264C246.104 158.536 242.84 157.672 239.256 157.672C235.544 157.672 232.216 158.504 229.272 160.168C226.328 161.832 223.992 164.264 222.264 167.464C220.6 170.6 219.768 174.344 219.768 178.696C219.768 182.984 220.6 186.76 222.264 190.024C223.992 193.224 226.328 195.688 229.272 197.416C232.216 199.08 235.544 199.912 239.256 199.912C242.84 199.912 246.104 199.048 249.048 197.32C252.056 195.592 254.424 193.128 256.152 189.928C257.88 186.728 258.744 183.016 258.744 178.792ZM287.525 133.96V205H280.805V133.96H287.525Z" fill="black"/>
</svg>
