<svg width="1440" height="1024" viewBox="0 0 1440 1024" fill="none" xmlns="http://www.w3.org/2000/svg">
<g clip-path="url(#clip0_2_29)">
<rect width="1440" height="1024" fill="#080808"/>
<g filter="url(#filter0_f_2_29)">
<path d="M1144 1170C1144 1404.17 954.169 1594 720 1594C485.831 1594 296 1404.17 296 1170C296 935.831 485.831 746 720 746C954.169 746 1144 935.831 1144 1170Z" fill="white"/>
</g>
<g style="mix-blend-mode:screen" clip-path="url(#clip1_2_29)">
<rect width="2000" height="2000" transform="translate(-127 -226)" fill="black" fill-opacity="0.7"/>
<g clip-path="url(#clip2_2_29)">
<circle cx="100.775" cy="564.601" r="0.885901" fill="white"/>
<circle cx="410.607" cy="979.479" r="0.591452" fill="white"/>
<circle cx="1070.62" cy="183.185" r="0.89506" fill="white"/>
<circle cx="590.803" cy="798.315" r="0.907658" fill="white"/>
<circle cx="1181.98" cy="101.055" r="0.960306" fill="white"/>
<circle cx="1394.82" cy="254.998" r="0.960551" fill="white"/>
<circle cx="894.84" cy="23.3668" r="0.618557" fill="white"/>
<circle cx="354.968" cy="808.278" r="0.967665" fill="white"/>
<circle cx="643.583" cy="885.987" r="0.660511" fill="white"/>
<circle cx="1315.58" cy="669.447" r="0.665672" fill="white"/>
<circle cx="1239.78" cy="183.187" r="0.628779" fill="white"/>
<circle cx="1098.18" cy="678.476" r="0.957459" fill="white"/>
<circle cx="866.661" cy="481.673" r="0.69022" fill="white"/>
<circle cx="656.999" cy="146.29" r="0.822774" fill="white"/>
<circle cx="594.472" cy="47.5273" r="0.902046" fill="white"/>
<circle cx="1048.42" cy="922.087" r="0.922595" fill="white"/>
<circle cx="1208.39" cy="23.9337" r="0.700394" fill="white"/>
<circle cx="1070.15" cy="844.28" r="0.753688" fill="white"/>
<circle cx="457.395" cy="984.927" r="0.914103" fill="white"/>
<circle cx="424.342" cy="913.255" r="0.692769" fill="white"/>
<circle cx="652.282" cy="107.847" r="0.920377" fill="white"/>
<circle cx="972.941" cy="442.39" r="0.830451" fill="white"/>
<circle cx="554.32" cy="174.411" r="0.967214" fill="white"/>
<circle cx="882.83" cy="960.017" r="0.532447" fill="white"/>
<circle cx="1289.69" cy="865.838" r="0.864146" fill="white"/>
<circle cx="338.117" cy="397.923" r="0.672178" fill="white"/>
<circle cx="366.645" cy="274.172" r="0.773417" fill="white"/>
<circle cx="379.277" cy="252.251" r="0.726826" fill="white"/>
<circle cx="432.512" cy="601.049" r="0.819194" fill="white"/>
<circle cx="1364.61" cy="287.796" r="0.698001" fill="white"/>
<circle cx="1293.1" cy="307.28" r="0.554303" fill="white"/>
<circle cx="19.145" cy="287.568" r="0.898903" fill="white"/>
<circle cx="1185.32" cy="182.161" r="0.981486" fill="white"/>
<circle cx="657.802" cy="378.033" r="0.922527" fill="white"/>
<circle cx="519.419" cy="969.773" r="0.704268" fill="white"/>
<circle cx="1231.98" cy="609.084" r="0.810869" fill="white"/>
<circle cx="1094.1" cy="647.221" r="0.63976" fill="white"/>
<circle cx="1101.99" cy="461.8" r="0.928492" fill="white"/>
<circle cx="1163.22" cy="922.908" r="0.610175" fill="white"/>
<circle cx="159.416" cy="901.946" r="0.948367" fill="white"/>
<circle cx="528.139" cy="929.887" r="0.98152" fill="white"/>
<circle cx="325.62" cy="133.032" r="0.813028" fill="white"/>
<circle cx="1276" cy="413.457" r="0.744225" fill="white"/>
<circle cx="1319.98" cy="89.4318" r="0.979509" fill="white"/>
<circle cx="29.082" cy="251.149" r="0.982293" fill="white"/>
<circle cx="579.507" cy="377.367" r="0.902423" fill="white"/>
<circle cx="716.944" cy="332.41" r="0.70805" fill="white"/>
<circle cx="655.544" cy="469.761" r="0.98858" fill="white"/>
<circle cx="704.619" cy="1002.16" r="0.683474" fill="white"/>
<circle cx="428.339" cy="269.782" r="0.985465" fill="white"/>
<circle cx="1128.02" cy="693.975" r="0.810137" fill="white"/>
<circle cx="970.453" cy="762.17" r="0.500685" fill="white"/>
<circle cx="962.806" cy="560.165" r="0.659902" fill="white"/>
<circle cx="255.169" cy="817.743" r="0.825986" fill="white"/>
<circle cx="856.345" cy="443.37" r="0.660858" fill="white"/>
<circle cx="555.042" cy="766.805" r="0.655241" fill="white"/>
<circle cx="650.597" cy="620.471" r="0.597226" fill="white"/>
<circle cx="744.846" cy="144.962" r="0.673467" fill="white"/>
<circle cx="180.541" cy="219.65" r="0.879649" fill="white"/>
<circle cx="1146.91" cy="843.132" r="0.682641" fill="white"/>
<circle cx="84.8223" cy="1021.11" r="0.52648" fill="white"/>
<circle cx="656.609" cy="831.469" r="0.565277" fill="white"/>
<circle cx="151.583" cy="491.068" r="0.804241" fill="white"/>
<circle cx="633.696" cy="935.12" r="0.514894" fill="white"/>
<circle cx="16.2439" cy="771.465" r="0.571983" fill="white"/>
<circle cx="1338.8" cy="922.293" r="0.6735" fill="white"/>
<circle cx="232.153" cy="562.061" r="0.617008" fill="white"/>
<circle cx="949.861" cy="393.397" r="0.622299" fill="white"/>
<circle cx="1321.08" cy="710.921" r="0.513378" fill="white"/>
<circle cx="386.353" cy="742.685" r="0.786193" fill="white"/>
<circle cx="1064.31" cy="647.687" r="0.676119" fill="white"/>
<circle cx="434.85" cy="794.915" r="0.97021" fill="white"/>
<circle cx="1111.34" cy="244.257" r="0.934982" fill="white"/>
<circle cx="785.695" cy="218.502" r="0.683085" fill="white"/>
<circle cx="794.197" cy="317.934" r="0.757814" fill="white"/>
<circle cx="1258.27" cy="793.063" r="0.909274" fill="white"/>
<circle cx="567.856" cy="801.802" r="0.779756" fill="white"/>
<circle cx="546.742" cy="215.667" r="0.986386" fill="white"/>
<circle cx="1347.03" cy="155.611" r="0.668616" fill="white"/>
<circle cx="906.609" cy="829.391" r="0.936821" fill="white"/>
<circle cx="317.859" cy="171.235" r="0.561869" fill="white"/>
<circle cx="896.691" cy="988.265" r="0.694909" fill="white"/>
<circle cx="1289.61" cy="1004.54" r="0.864" fill="white"/>
<circle cx="686.441" cy="463.478" r="0.775691" fill="white"/>
<circle cx="1189.43" cy="928.652" r="0.924808" fill="white"/>
<circle cx="1381.74" cy="762.299" r="0.765797" fill="white"/>
<circle cx="659.44" cy="54.9607" r="0.846135" fill="white"/>
<circle cx="273.736" cy="617.736" r="0.963885" fill="white"/>
<circle cx="266.781" cy="357.174" r="0.787465" fill="white"/>
<circle cx="682.273" cy="908.609" r="0.933535" fill="white"/>
<circle cx="209.289" cy="575.194" r="0.863836" fill="white"/>
<circle cx="423.691" cy="359.463" r="0.888166" fill="white"/>
<circle cx="57.011" cy="531.947" r="0.843431" fill="white"/>
<circle cx="500.554" cy="351.034" r="0.882861" fill="white"/>
<circle cx="1213.3" cy="24.3116" r="0.619451" fill="white"/>
<circle cx="1226.37" cy="680.156" r="0.941734" fill="white"/>
<circle cx="574.815" cy="731.497" r="0.742331" fill="white"/>
<circle cx="1202.13" cy="549.013" r="0.831355" fill="white"/>
<circle cx="348.408" cy="223.825" r="0.940079" fill="white"/>
<circle cx="900.507" cy="100.774" r="0.58867" fill="white"/>
<circle cx="760.555" cy="292.092" r="0.703148" fill="white"/>
<circle cx="129.323" cy="146.364" r="0.743067" fill="white"/>
<circle cx="1131.7" cy="235.363" r="0.66306" fill="white"/>
<circle cx="110.672" cy="406.236" r="0.512111" fill="white"/>
<circle cx="1437.95" cy="199.454" r="0.585779" fill="white"/>
<circle cx="273.274" cy="703.116" r="0.917926" fill="white"/>
<circle cx="286.368" cy="67.5315" r="0.813235" fill="white"/>
<circle cx="22.3768" cy="81.6675" r="0.764404" fill="white"/>
<circle cx="1030.11" cy="662.662" r="0.994422" fill="white"/>
<circle cx="198.714" cy="832.876" r="0.903252" fill="white"/>
<circle cx="611.068" cy="458.065" r="0.970932" fill="white"/>
<circle cx="134.276" cy="212.742" r="0.856215" fill="white"/>
<circle cx="1435.84" cy="565.208" r="0.680502" fill="white"/>
<circle cx="713.813" cy="943.965" r="0.515841" fill="white"/>
<circle cx="218.119" cy="534.955" r="0.539907" fill="white"/>
<circle cx="1367.79" cy="691.151" r="0.591741" fill="white"/>
<circle cx="1156.78" cy="833.407" r="0.614033" fill="white"/>
<circle cx="1169.65" cy="436.408" r="0.828051" fill="white"/>
<circle cx="445.611" cy="276.159" r="0.545134" fill="white"/>
<circle cx="516.648" cy="770.507" r="0.975925" fill="white"/>
<circle cx="1428.01" cy="1006.41" r="0.722584" fill="white"/>
<circle cx="383.89" cy="990.058" r="0.865211" fill="white"/>
<circle cx="354.04" cy="444.606" r="0.601973" fill="white"/>
<circle cx="584.688" cy="200.215" r="0.677247" fill="white"/>
<circle cx="228.167" cy="422.376" r="0.953942" fill="white"/>
<circle cx="520.32" cy="306.122" r="0.595343" fill="white"/>
<circle cx="652.769" cy="537.169" r="0.634469" fill="white"/>
<circle cx="806.955" cy="985.562" r="0.995995" fill="white"/>
<circle cx="628.909" cy="103.669" r="0.683324" fill="white"/>
<circle cx="1161.11" cy="695.555" r="0.734771" fill="white"/>
<circle cx="1211.27" cy="1.6147" r="0.55519" fill="white"/>
<circle cx="406.845" cy="949.259" r="0.809493" fill="white"/>
<circle cx="939.256" cy="966.66" r="0.789034" fill="white"/>
<circle cx="93.0112" cy="248.751" r="0.601795" fill="white"/>
<circle cx="768.458" cy="227.429" r="0.652933" fill="white"/>
<circle cx="1420.69" cy="75.2457" r="0.969227" fill="white"/>
<circle cx="133.926" cy="665.585" r="0.793193" fill="white"/>
<circle cx="552.349" cy="597.121" r="0.558822" fill="white"/>
<circle cx="757.258" cy="259.32" r="0.815536" fill="white"/>
<circle cx="197.472" cy="548.555" r="0.571044" fill="white"/>
<circle cx="13.7035" cy="77.5221" r="0.637977" fill="white"/>
<circle cx="543.947" cy="859.272" r="0.636327" fill="white"/>
<circle cx="987.214" cy="147.897" r="0.755273" fill="white"/>
<circle cx="755.735" cy="69.9482" r="0.601367" fill="white"/>
<circle cx="55.0203" cy="488.84" r="0.62858" fill="white"/>
<circle cx="162.188" cy="722.963" r="0.665069" fill="white"/>
<circle cx="212.689" cy="941.717" r="0.530632" fill="white"/>
<circle cx="138.068" cy="212.53" r="0.900893" fill="white"/>
<circle cx="998.756" cy="436.522" r="0.665012" fill="white"/>
<circle cx="890.104" cy="651.121" r="0.77373" fill="white"/>
<circle cx="372.179" cy="265.159" r="0.653645" fill="white"/>
<circle cx="1201.65" cy="187.551" r="0.846879" fill="white"/>
<circle cx="999.302" cy="834.918" r="0.827744" fill="white"/>
<circle cx="1210.68" cy="954.693" r="0.971613" fill="white"/>
<circle cx="460.989" cy="677.373" r="0.847072" fill="white"/>
<circle cx="274.485" cy="1020.89" r="0.678149" fill="white"/>
<circle cx="659.302" cy="326.115" r="0.649587" fill="white"/>
<circle cx="907.146" cy="772.812" r="0.556435" fill="white"/>
<circle cx="706.31" cy="957.172" r="0.893512" fill="white"/>
<circle cx="1392.27" cy="226.02" r="0.619339" fill="white"/>
<circle cx="804.862" cy="661.238" r="0.929413" fill="white"/>
<circle cx="1263.15" cy="197.967" r="0.576644" fill="white"/>
<circle cx="268.194" cy="949.206" r="0.675829" fill="white"/>
<circle cx="814.891" cy="229.689" r="0.544676" fill="white"/>
<circle cx="395.323" cy="328.902" r="0.535071" fill="white"/>
<circle cx="1428.59" cy="451.942" r="0.833553" fill="white"/>
<circle cx="943.588" cy="599.25" r="0.586028" fill="white"/>
<circle cx="1029.06" cy="345.037" r="0.632073" fill="white"/>
<circle cx="67.8893" cy="522.385" r="0.753774" fill="white"/>
<circle cx="263.935" cy="265.067" r="0.626518" fill="white"/>
<circle cx="118.155" cy="562.351" r="0.724279" fill="white"/>
<circle cx="794.208" cy="35.7135" r="0.657383" fill="white"/>
<circle cx="978.507" cy="76.3337" r="0.634022" fill="white"/>
<circle cx="559.529" cy="142.775" r="0.682312" fill="white"/>
<circle cx="934.694" cy="997.946" r="0.792827" fill="white"/>
<circle cx="79.3683" cy="186.61" r="0.90715" fill="white"/>
<circle cx="358.757" cy="537.345" r="0.831501" fill="white"/>
<circle cx="952.945" cy="300.967" r="0.885825" fill="white"/>
<circle cx="475.752" cy="585.712" r="0.913091" fill="white"/>
<circle cx="283.295" cy="993.435" r="0.778426" fill="white"/>
<circle cx="882.692" cy="1.99584" r="0.751664" fill="white"/>
<circle cx="184.654" cy="184.963" r="0.847438" fill="white"/>
<circle cx="970.232" cy="294.876" r="0.784498" fill="white"/>
<circle cx="1222.12" cy="145.577" r="0.970344" fill="white"/>
<circle cx="7.23882" cy="543.835" r="0.517624" fill="white"/>
<circle cx="1406.45" cy="298.497" r="0.884019" fill="white"/>
<circle cx="464.165" cy="188.211" r="0.636298" fill="white"/>
<circle cx="774.83" cy="131.008" r="0.912856" fill="white"/>
<circle cx="684.317" cy="63.8337" r="0.538024" fill="white"/>
<circle cx="134.168" cy="893.446" r="0.608598" fill="white"/>
<circle cx="1064.01" cy="877.238" r="0.950451" fill="white"/>
<circle cx="140.402" cy="142.509" r="0.917152" fill="white"/>
<circle cx="1283.22" cy="640.315" r="0.827189" fill="white"/>
<circle cx="1121.6" cy="982.786" r="0.90541" fill="white"/>
<circle cx="1059.99" cy="955.378" r="0.606647" fill="white"/>
<circle cx="906.417" cy="743.038" r="0.914307" fill="white"/>
<circle cx="368.151" cy="522.378" r="0.602265" fill="white"/>
<circle cx="943.508" cy="779.855" r="0.742543" fill="white"/>
<circle cx="1215.79" cy="48.9065" r="0.950626" fill="white"/>
<circle cx="1235.43" cy="117.144" r="0.689482" fill="white"/>
<circle cx="567.981" cy="767.121" r="0.663128" fill="white"/>
<circle cx="51.0036" cy="931.05" r="0.664441" fill="white"/>
<circle cx="983.231" cy="51.1732" r="0.708628" fill="white"/>
<circle cx="184.413" cy="-0.400706" r="0.75762" fill="white"/>
<circle cx="728.999" cy="364.269" r="0.561871" fill="white"/>
<circle cx="874.692" cy="370.255" r="0.735967" fill="white"/>
<circle cx="596.74" cy="793.031" r="0.87408" fill="white"/>
<circle cx="754.222" cy="728.841" r="0.760078" fill="white"/>
<circle cx="104.332" cy="613.162" r="0.7705" fill="white"/>
<circle cx="731.092" cy="422.095" r="0.824548" fill="white"/>
<circle cx="404.419" cy="111.473" r="0.776777" fill="white"/>
<circle cx="965.545" cy="1023.33" r="0.560274" fill="white"/>
<circle cx="611.482" cy="10.0303" r="0.88586" fill="white"/>
<circle cx="1332.84" cy="899.327" r="0.59661" fill="white"/>
<circle cx="558.593" cy="736.074" r="0.665386" fill="white"/>
<circle cx="620.399" cy="642.472" r="0.965947" fill="white"/>
<circle cx="1257.7" cy="223.04" r="0.642349" fill="white"/>
<circle cx="900.758" cy="249.827" r="0.685681" fill="white"/>
<circle cx="434.104" cy="716.604" r="0.513776" fill="white"/>
<circle cx="1176.79" cy="937.501" r="0.761875" fill="white"/>
<circle cx="815.906" cy="371.923" r="0.876379" fill="white"/>
<circle cx="161.398" cy="144.51" r="0.821055" fill="white"/>
<circle cx="1356.99" cy="594.06" r="0.599015" fill="white"/>
<circle cx="944.303" cy="1020.26" r="0.960949" fill="white"/>
<circle cx="792.347" cy="187.931" r="0.940372" fill="white"/>
<circle cx="1418.9" cy="777.854" r="0.629604" fill="white"/>
<circle cx="636.272" cy="629.763" r="0.934352" fill="white"/>
<circle cx="364.265" cy="729.759" r="0.565545" fill="white"/>
<circle cx="853.919" cy="670.487" r="0.570797" fill="white"/>
<circle cx="1134.12" cy="596.003" r="0.720105" fill="white"/>
<circle cx="629.414" cy="545.474" r="0.97169" fill="white"/>
<circle cx="204.328" cy="883.824" r="0.818397" fill="white"/>
<circle cx="1124.85" cy="506.323" r="0.671502" fill="white"/>
<circle cx="125.871" cy="792.645" r="0.935099" fill="white"/>
<circle cx="1010.27" cy="893.392" r="0.781211" fill="white"/>
<circle cx="310.67" cy="224.099" r="0.749409" fill="white"/>
<circle cx="693.525" cy="345.797" r="0.669398" fill="white"/>
<circle cx="113.751" cy="606.155" r="0.842612" fill="white"/>
<circle cx="650.453" cy="768.634" r="0.545521" fill="white"/>
<circle cx="338.838" cy="14.5342" r="0.698482" fill="white"/>
<circle cx="724.424" cy="56.69" r="0.799133" fill="white"/>
<circle cx="873.079" cy="1010.05" r="0.873134" fill="white"/>
<circle cx="555.433" cy="22.5559" r="0.508002" fill="white"/>
<circle cx="1389.32" cy="531.187" r="0.751609" fill="white"/>
<circle cx="1166.75" cy="589.909" r="0.941437" fill="white"/>
<circle cx="885.458" cy="329.409" r="0.573327" fill="white"/>
<circle cx="451.728" cy="189.034" r="0.958404" fill="white"/>
<circle cx="1370.49" cy="847.372" r="0.712008" fill="white"/>
<circle cx="1023.96" cy="709.292" r="0.753978" fill="white"/>
<circle cx="1413.65" cy="116.361" r="0.603444" fill="white"/>
<circle cx="743.938" cy="903.625" r="0.834662" fill="white"/>
<circle cx="778.958" cy="859.759" r="0.970643" fill="white"/>
<circle cx="1122.33" cy="414.856" r="0.546771" fill="white"/>
<circle cx="610.14" cy="154.332" r="0.847657" fill="white"/>
<circle cx="1139.76" cy="452.468" r="0.818868" fill="white"/>
<circle cx="878.801" cy="427.438" r="0.504416" fill="white"/>
<circle cx="923.535" cy="772.331" r="0.506616" fill="white"/>
<circle cx="604.365" cy="795.123" r="0.566199" fill="white"/>
<circle cx="273.086" cy="246.257" r="0.750352" fill="white"/>
<circle cx="542.238" cy="257.533" r="0.986149" fill="white"/>
<circle cx="144.404" cy="284.166" r="0.985239" fill="white"/>
<circle cx="69.1682" cy="287.347" r="0.969194" fill="white"/>
<circle cx="416.918" cy="666.651" r="0.725333" fill="white"/>
<circle cx="1296.98" cy="459.035" r="0.558882" fill="white"/>
<circle cx="19.8203" cy="37.2261" r="0.968126" fill="white"/>
<circle cx="1300.54" cy="829.647" r="0.792614" fill="white"/>
<circle cx="255.224" cy="515.001" r="0.854401" fill="white"/>
<circle cx="615.809" cy="84.9094" r="0.756016" fill="white"/>
<circle cx="1167.91" cy="283.79" r="0.782315" fill="white"/>
<circle cx="268.487" cy="429.192" r="0.794187" fill="white"/>
<circle cx="1094.76" cy="991.167" r="0.770695" fill="white"/>
<circle cx="177.643" cy="209.287" r="0.871914" fill="white"/>
<circle cx="881.613" cy="485.029" r="0.742443" fill="white"/>
<circle cx="228.509" cy="754.494" r="0.963665" fill="white"/>
<circle cx="979.639" cy="584.615" r="0.833049" fill="white"/>
<circle cx="406.038" cy="744.584" r="0.623336" fill="white"/>
<circle cx="247.671" cy="728.587" r="0.687133" fill="white"/>
<circle cx="1347.62" cy="136.484" r="0.764021" fill="white"/>
<circle cx="1428.57" cy="797.574" r="0.518517" fill="white"/>
<circle cx="1273.92" cy="526.489" r="0.579297" fill="white"/>
<circle cx="1323.5" cy="17.0595" r="0.962236" fill="white"/>
<circle cx="541.825" cy="388.84" r="0.730252" fill="white"/>
<circle cx="1343.91" cy="775.343" r="0.835261" fill="white"/>
<circle cx="728.619" cy="620.871" r="0.91793" fill="white"/>
<circle cx="173.068" cy="508.581" r="0.542292" fill="white"/>
<circle cx="327.037" cy="603.118" r="0.8141" fill="white"/>
<circle cx="163.345" cy="255.981" r="0.584243" fill="white"/>
<circle cx="161.459" cy="576.307" r="0.978923" fill="white"/>
<circle cx="42.0763" cy="907.476" r="0.96621" fill="white"/>
<circle cx="132.669" cy="381.711" r="0.512975" fill="white"/>
<circle cx="750.199" cy="820.785" r="0.543234" fill="white"/>
<circle cx="933.705" cy="97.7239" r="0.73764" fill="white"/>
<circle cx="622.9" cy="388.974" r="0.833665" fill="white"/>
<circle cx="558.095" cy="156.491" r="0.948893" fill="white"/>
<circle cx="974.532" cy="426.925" r="0.778961" fill="white"/>
<circle cx="1390.68" cy="447.731" r="0.939447" fill="white"/>
<circle cx="1405.75" cy="926.939" r="0.542074" fill="white"/>
<circle cx="944.107" cy="397.491" r="0.758653" fill="white"/>
<circle cx="885.939" cy="849.237" r="0.598252" fill="white"/>
<circle cx="23.6368" cy="500.697" r="0.968118" fill="white"/>
<circle cx="423.655" cy="163.03" r="0.577173" fill="white"/>
<circle cx="415.415" cy="867.608" r="0.666439" fill="white"/>
<circle cx="91.3536" cy="484.225" r="0.74911" fill="white"/>
<circle cx="1215.78" cy="218.029" r="0.650996" fill="white"/>
<circle cx="955.301" cy="89.1158" r="0.543869" fill="white"/>
<circle cx="533.727" cy="799.134" r="0.705465" fill="white"/>
<circle cx="124.844" cy="220.677" r="0.923597" fill="white"/>
<circle cx="1338.06" cy="141.197" r="0.716712" fill="white"/>
<circle cx="1147.83" cy="195.537" r="0.781351" fill="white"/>
<circle cx="873.3" cy="22.5555" r="0.560533" fill="white"/>
<circle cx="289.248" cy="4.76183" r="0.906331" fill="white"/>
<circle cx="167.368" cy="194.387" r="0.584609" fill="white"/>
<circle cx="529.555" cy="227.028" r="0.548108" fill="white"/>
<circle cx="700.933" cy="523.115" r="0.692568" fill="white"/>
<circle cx="1080.15" cy="67.8937" r="0.704531" fill="white"/>
<circle cx="1429.94" cy="601.829" r="0.537897" fill="white"/>
<circle cx="23.4578" cy="969.096" r="0.622386" fill="white"/>
<circle cx="1320.81" cy="638.562" r="0.600752" fill="white"/>
<circle cx="753.252" cy="178.323" r="0.893058" fill="white"/>
<circle cx="889.294" cy="468.833" r="0.543289" fill="white"/>
<circle cx="24.0421" cy="724.337" r="0.533115" fill="white"/>
<circle cx="1281.63" cy="519.443" r="0.996726" fill="white"/>
<circle cx="671.844" cy="183.768" r="0.890019" fill="white"/>
<circle cx="33.9731" cy="183.64" r="0.845921" fill="white"/>
<circle cx="449.076" cy="977.24" r="0.699914" fill="white"/>
<circle cx="226.076" cy="700.981" r="0.75645" fill="white"/>
<circle cx="196.3" cy="563.191" r="0.835362" fill="white"/>
<circle cx="413.911" cy="56.0383" r="0.893768" fill="white"/>
<circle cx="1324.22" cy="343.545" r="0.798448" fill="white"/>
<circle cx="569.203" cy="39.6733" r="0.791617" fill="white"/>
<circle cx="1043.39" cy="189.821" r="0.76397" fill="white"/>
<circle cx="1067.89" cy="31.3995" r="0.763461" fill="white"/>
<circle cx="920.809" cy="329.732" r="0.819364" fill="white"/>
<circle cx="583.027" cy="380.141" r="0.793763" fill="white"/>
<circle cx="498.511" cy="292.779" r="0.626432" fill="white"/>
<circle cx="622.547" cy="46.2919" r="0.817983" fill="white"/>
<circle cx="770.569" cy="849.668" r="0.755627" fill="white"/>
<circle cx="1426.84" cy="581.651" r="0.864552" fill="white"/>
<circle cx="658.935" cy="709.93" r="0.710962" fill="white"/>
<circle cx="707.893" cy="61.3461" r="0.681231" fill="white"/>
<circle cx="1399.25" cy="805.605" r="0.626579" fill="white"/>
<circle cx="174.073" cy="378.391" r="0.618311" fill="white"/>
<circle cx="1287.9" cy="124.66" r="0.939168" fill="white"/>
<circle cx="1256.74" cy="276.876" r="0.903806" fill="white"/>
<circle cx="1049.78" cy="566.573" r="0.816501" fill="white"/>
<circle cx="913.977" cy="320.788" r="0.768127" fill="white"/>
<circle cx="775.049" cy="23.4991" r="0.731624" fill="white"/>
<circle cx="879.698" cy="400.16" r="0.905173" fill="white"/>
<circle cx="49.508" cy="945.013" r="0.657884" fill="white"/>
<circle cx="247.772" cy="661.402" r="0.824472" fill="white"/>
<circle cx="669.703" cy="179.495" r="0.752408" fill="white"/>
<circle cx="771.394" cy="170.131" r="0.647436" fill="white"/>
<circle cx="1241.18" cy="708.919" r="0.817524" fill="white"/>
<circle cx="454.912" cy="979.406" r="0.680453" fill="white"/>
<circle cx="922.071" cy="337.477" r="0.561141" fill="white"/>
<circle cx="31.0071" cy="891.211" r="0.703408" fill="white"/>
<circle cx="957.561" cy="651.485" r="0.797255" fill="white"/>
<circle cx="1098.02" cy="252.323" r="0.674442" fill="white"/>
<circle cx="985.459" cy="798.482" r="0.585178" fill="white"/>
<circle cx="746.247" cy="416.081" r="0.762305" fill="white"/>
<circle cx="39.119" cy="967.49" r="0.618656" fill="white"/>
<circle cx="236.722" cy="943.503" r="0.6051" fill="white"/>
<circle cx="732.517" cy="288.013" r="0.961232" fill="white"/>
<circle cx="965.13" cy="508.676" r="0.539085" fill="white"/>
<circle cx="457.149" cy="586.522" r="0.979301" fill="white"/>
<circle cx="1095.77" cy="594.65" r="0.778302" fill="white"/>
<circle cx="41.5531" cy="648.195" r="0.651098" fill="white"/>
</g>
<g clip-path="url(#clip3_2_29)">
<g filter="url(#filter1_f_2_29)">
<ellipse cx="183.881" cy="799.975" rx="900" ry="270" transform="rotate(-114.099 183.881 799.975)" fill="#0000FF" fill-opacity="0.05"/>
</g>
<ellipse cx="1168.28" cy="-990.44" rx="900" ry="270" transform="rotate(-117.046 1168.28 -990.44)" fill="#0000FF" fill-opacity="0.05"/>
<g filter="url(#filter3_f_2_29)">
<ellipse cx="1464.64" cy="503.649" rx="900" ry="270" transform="rotate(-25.7524 1464.64 503.649)" fill="#0000FF" fill-opacity="0.05"/>
</g>
</g>
</g>
</g>
<defs>
<filter id="filter0_f_2_29" x="-165.5" y="284.5" width="1771" height="1771" filterUnits="userSpaceOnUse" color-interpolation-filters="sRGB">
<feFlood flood-opacity="0" result="BackgroundImageFix"/>
<feBlend mode="normal" in="SourceGraphic" in2="BackgroundImageFix" result="shape"/>
<feGaussianBlur stdDeviation="230.75" result="effect1_foregroundBlur_2_29"/>
</filter>
<filter id="filter1_f_2_29" x="-408.642" y="-179.046" width="1185.05" height="1958.04" filterUnits="userSpaceOnUse" color-interpolation-filters="sRGB">
<feFlood flood-opacity="0" result="BackgroundImageFix"/>
<feBlend mode="normal" in="SourceGraphic" in2="BackgroundImageFix" result="shape"/>
<feGaussianBlur stdDeviation="75" result="effect1_foregroundBlur_2_29"/>
</filter>
<filter id="filter3_f_2_29" x="495.48" y="-106.899" width="1938.33" height="1221.1" filterUnits="userSpaceOnUse" color-interpolation-filters="sRGB">
<feFlood flood-opacity="0" result="BackgroundImageFix"/>
<feBlend mode="normal" in="SourceGraphic" in2="BackgroundImageFix" result="shape"/>
<feGaussianBlur stdDeviation="75" result="effect1_foregroundBlur_2_29"/>
</filter>
<clipPath id="clip0_2_29">
<rect width="1440" height="1024" fill="white"/>
</clipPath>
<clipPath id="clip1_2_29">
<rect width="2000" height="2000" fill="white" transform="translate(-127 -226)"/>
</clipPath>
<clipPath id="clip2_2_29">
<rect width="2000" height="2000" fill="white" transform="translate(-127 -226)"/>
</clipPath>
<clipPath id="clip3_2_29">
<rect width="2000" height="2000" fill="white" transform="translate(-127 -226)"/>
</clipPath>
</defs>
</svg>
